<svg id="brands-and-logotypes" xmlns="http://www.w3.org/2000/svg" width="24.432" height="24.432" viewBox="0 0 24.432 24.432">
  <path id="Path_1441" data-name="Path 1441" d="M5.726,107.649a6.45,6.45,0,0,1,.913-3.315v-4.119H2.521a12.222,12.222,0,0,0,0,14.868H6.639v-4.119A6.45,6.45,0,0,1,5.726,107.649Z" transform="translate(0 -95.433)" fill="#fbbd00"/>
  <path id="Path_1442" data-name="Path 1442" d="M198.863,373.87,196,376.733l2.863,2.863a12.124,12.124,0,0,0,7.434-2.521v-4.114h-4.114A6.489,6.489,0,0,1,198.863,373.87Z" transform="translate(-186.647 -355.164)" fill="#0f9d58"/>
  <path id="Path_1443" data-name="Path 1443" d="M56.942,325.477,52.823,329.6a12.407,12.407,0,0,0,1.057,1.2,12.136,12.136,0,0,0,8.638,3.578v-5.726A6.492,6.492,0,0,1,56.942,325.477Z" transform="translate(-50.302 -309.945)" fill="#31aa52"/>
  <path id="Path_1444" data-name="Path 1444" d="M268.216,200.124a12.321,12.321,0,0,0-.2-2.213l-.107-.587H256v5.726h5.8a6.46,6.46,0,0,1-2.476,2.655l4.114,4.114a12.408,12.408,0,0,0,1.2-1.057A12.136,12.136,0,0,0,268.216,200.124Z" transform="translate(-243.784 -187.908)" fill="#3c79e6"/>
  <path id="Path_1445" data-name="Path 1445" d="M203.452,7.627l.506.506,4.049-4.049-.506-.506A12.136,12.136,0,0,0,198.863,0L196,2.863l2.863,2.863A6.448,6.448,0,0,1,203.452,7.627Z" transform="translate(-186.647)" fill="#cf2d48"/>
  <path id="Path_1446" data-name="Path 1446" d="M62.517,5.726V0a12.136,12.136,0,0,0-8.638,3.578,12.4,12.4,0,0,0-1.057,1.2L56.941,8.9A6.493,6.493,0,0,1,62.517,5.726Z" transform="translate(-50.301 0)" fill="#eb4132"/>
</svg>
